<?xml version="1.0" standalone="no"?>
<!DOCTYPE svg PUBLIC "-//W3C//DTD SVG 20010904//EN"
 "http://www.w3.org/TR/2001/REC-SVG-20010904/DTD/svg10.dtd">
<svg version="1.0" xmlns="http://www.w3.org/2000/svg"
 width="300.000000pt" height="300.000000pt" viewBox="0 0 300.000000 300.000000"
 preserveAspectRatio="xMidYMid meet">
<metadata>
Created by potrace 1.14, written by Peter Selinger 2001-2017
</metadata>
<g transform="translate(0.000000,300.000000) scale(0.100000,-0.100000)"
fill="#000000" stroke="none">
<path d="M9 2955 c0 -17 -1 -191 -1 -387 l0 -358 28 -33 c16 -18 45 -53 65
-78 47 -58 525 -638 547 -664 9 -11 40 -48 67 -83 l50 -62 3 377 2 377 -32 40
c-18 23 -38 48 -45 56 -7 8 -47 58 -88 110 -42 52 -90 111 -105 130 -16 19
-129 159 -250 310 -122 151 -226 279 -231 285 -5 5 -9 -2 -10 -20z"/>
<path d="M940 2939 c-33 -14 -68 -47 -88 -84 -14 -27 -16 -130 -17 -925 -2
-827 -3 -897 -19 -928 -44 -81 -151 -115 -233 -74 -47 25 -74 55 -348 397
-114 143 -214 266 -220 274 -10 10 -13 -62 -12 -355 l0 -369 45 -60 c26 -33
49 -62 52 -65 3 -3 107 -131 230 -285 331 -414 320 -401 374 -429 109 -56 228
-21 266 79 8 21 12 283 12 912 1 815 2 886 18 922 26 56 80 94 144 99 81 7
123 -21 236 -158 25 -30 59 -70 76 -90 17 -19 40 -46 52 -60 11 -14 30 -36 42
-50 12 -14 90 -105 173 -202 83 -98 153 -178 157 -178 3 0 5 158 5 351 l-1
350 -86 107 c-47 59 -99 122 -115 141 -25 30 -62 76 -213 261 -19 24 -44 54
-55 68 -273 337 -291 354 -394 359 -31 2 -67 -2 -81 -8z"/>
<path d="M2035 2927 c-26 -14 -48 -37 -62 -67 l-23 -44 0 -876 c0 -542 -4
-888 -10 -909 -19 -68 -90 -121 -163 -123 -86 -1 -110 20 -342 312 -99 124
-182 227 -185 230 -3 3 -44 52 -90 110 -45 58 -89 112 -97 120 -11 12 -13 -46
-13 -360 l0 -375 63 -77 c34 -42 107 -132 161 -200 55 -68 107 -131 115 -140
9 -9 21 -23 26 -30 60 -76 243 -302 308 -379 67 -79 122 -109 201 -109 67 0
116 26 148 78 l23 37 1 897 1 896 27 46 c47 80 143 108 224 67 49 -25 49 -25
427 -471 114 -135 211 -249 215 -254 5 -4 8 152 8 348 l-1 355 -294 363 c-162
200 -302 372 -311 383 -9 11 -37 46 -62 77 -25 30 -59 65 -76 77 -66 46 -156
54 -219 18z"/>
<path d="M2163 1324 l0 -347 27 -31 c14 -17 134 -157 265 -311 132 -154 246
-288 255 -297 8 -9 74 -87 145 -172 72 -85 133 -155 136 -155 11 -1 9 631 -2
651 -5 10 -35 49 -67 87 -31 38 -73 88 -92 112 -19 24 -61 75 -93 113 -32 39
-64 78 -70 86 -13 17 -142 174 -168 205 -10 11 -83 101 -164 200 -81 99 -153
186 -159 193 -10 11 -13 -56 -13 -334z"/>
</g>
</svg>
